<svg id="Layer_1" data-name="Layer 1" xmlns="http://www.w3.org/2000/svg" viewBox="0 0 322.85 83"><defs><style>.cls-1{fill:#5e71e4;}.cls-2{fill:#edeada;}.cls-3{fill:#cec9ae;}.cls-4{fill:#ebba16;}.cls-5{fill:#d75a4a;}</style></defs><title>logo-auth</title><path class="cls-1" d="M157,76.76V25.47q0-4,1.82-6a6.07,6.07,0,0,1,4.71-2,6.29,6.29,0,0,1,4.82,2q1.84,2,1.84,6V76.76q0,4-1.84,6a6.25,6.25,0,0,1-4.82,2,6.06,6.06,0,0,1-4.68-2Q157,80.75,157,76.76Z" transform="translate(-67.15 -7.07)"/><path class="cls-1" d="M200.08,65.39H186a7.08,7.08,0,0,1-4.86-1.49,4.91,4.91,0,0,1-1.67-3.84,5,5,0,0,1,1.62-3.89A7,7,0,0,1,186,54.69h14A7.05,7.05,0,0,1,205,56.17a5.44,5.44,0,0,1,0,7.73A7,7,0,0,1,200.08,65.39Z" transform="translate(-67.15 -7.07)"/><path class="cls-1" d="M270.73,63.12a17.35,17.35,0,0,1-1.53,6.73,24.27,24.27,0,0,1-4.82,7.1A24.58,24.58,0,0,1,256,82.62a30.19,30.19,0,0,1-11.9,2.18,41.66,41.66,0,0,1-9.37-1,26.32,26.32,0,0,1-7.66-3,25.84,25.84,0,0,1-6.33-5.44,32.33,32.33,0,0,1-4.4-6.86,35.71,35.71,0,0,1-2.73-8.1,44.17,44.17,0,0,1-.91-9.15A40.57,40.57,0,0,1,215,37.15a30,30,0,0,1,6.55-10.64,28.57,28.57,0,0,1,10-6.73,32.36,32.36,0,0,1,12.21-2.31,30.51,30.51,0,0,1,14.08,3.15,25.49,25.49,0,0,1,9.46,7.79q3.29,4.64,3.29,8.77a5.72,5.72,0,0,1-1.6,4,5.07,5.07,0,0,1-3.86,1.73,5.34,5.34,0,0,1-3.8-1.2,16.6,16.6,0,0,1-2.82-4.13,19.87,19.87,0,0,0-6.06-7.24,14.8,14.8,0,0,0-8.59-2.4,15.57,15.57,0,0,0-12.94,6.17q-4.82,6.17-4.82,17.54a32.57,32.57,0,0,0,2.13,12.63,16,16,0,0,0,6,7.53,16.67,16.67,0,0,0,9.15,2.49A16.06,16.06,0,0,0,253,71.49a17,17,0,0,0,5.93-8.28A14.05,14.05,0,0,1,261,59a4.72,4.72,0,0,1,4-1.62A5.59,5.59,0,0,1,269,59,5.47,5.47,0,0,1,270.73,63.12Z" transform="translate(-67.15 -7.07)"/><path class="cls-1" d="M324.23,76.31l-3.11-8.17H294.66l-3.11,8.35a29.22,29.22,0,0,1-3.11,6.59,4.94,4.94,0,0,1-4.22,1.71,6.19,6.19,0,0,1-4.4-1.82,5.58,5.58,0,0,1-1.91-4.13,9.21,9.21,0,0,1,.44-2.75q.44-1.42,1.47-4l16.65-42.27,1.71-4.37a22.13,22.13,0,0,1,2.13-4.24,8.66,8.66,0,0,1,3-2.73,9.13,9.13,0,0,1,4.55-1,9.23,9.23,0,0,1,4.6,1,8.84,8.84,0,0,1,3,2.69,18.84,18.84,0,0,1,1.91,3.53q.78,1.89,2,5l17,42q2,4.8,2,7a5.77,5.77,0,0,1-1.89,4.15,6.2,6.2,0,0,1-4.55,1.89,5.9,5.9,0,0,1-2.66-.56,5.47,5.47,0,0,1-1.87-1.51,13.89,13.89,0,0,1-1.62-2.93Q324.86,77.82,324.23,76.31ZM298.12,58.24h19.45l-9.81-26.87Z" transform="translate(-67.15 -7.07)"/><path class="cls-1" d="M358.16,42.21v1.47a21.21,21.21,0,0,1,7-6.2,18.64,18.64,0,0,1,8.73-2,17.41,17.41,0,0,1,8.57,2.09,13.26,13.26,0,0,1,5.64,5.91,14,14,0,0,1,1.55,4.8,49.69,49.69,0,0,1,.36,6.57V77.42a8,8,0,0,1-1.67,5.51A5.53,5.53,0,0,1,384,84.79a5.59,5.59,0,0,1-4.4-1.91,8,8,0,0,1-1.69-5.46V57.22q0-6-1.67-9.17t-6.64-3.18a9.83,9.83,0,0,0-5.91,1.93,11.1,11.1,0,0,0-3.91,5.31q-.89,2.71-.89,10.12V77.42q0,3.69-1.71,5.53a5.76,5.76,0,0,1-4.42,1.84,5.5,5.5,0,0,1-4.31-1.91,8,8,0,0,1-1.69-5.46v-35a7.63,7.63,0,0,1,1.51-5.17,5.23,5.23,0,0,1,4.13-1.71,5.6,5.6,0,0,1,2.89.75,5.41,5.41,0,0,1,2.06,2.26A8,8,0,0,1,358.16,42.21Z" transform="translate(-67.15 -7.07)"/><polygon class="cls-2" points="64.4 20.03 44.36 0 0 0 0 83 64.4 83 64.4 20.03"/><polygon class="cls-3" points="44.36 0 44.36 20.03 64.4 20.03 44.36 0"/><path class="cls-3" d="M80,30H92.91a1.43,1.43,0,1,0,0-2.86H80A1.43,1.43,0,1,0,80,30Z" transform="translate(-67.15 -7.07)"/><path class="cls-3" d="M80,41.41h7.16a1.43,1.43,0,1,0,0-2.86H80a1.43,1.43,0,1,0,0,2.86Z" transform="translate(-67.15 -7.07)"/><path class="cls-3" d="M111.51,38.55h-10a1.43,1.43,0,1,0,0,2.86h10a1.43,1.43,0,1,0,0-2.86Z" transform="translate(-67.15 -7.07)"/><path class="cls-3" d="M93.32,39a1.38,1.38,0,0,0-.42,1,1.44,1.44,0,0,0,.42,1,1.5,1.5,0,0,0,1,.42,1.4,1.4,0,0,0,1-.43,1.45,1.45,0,0,0,.42-1,1.5,1.5,0,0,0-.42-1A1.48,1.48,0,0,0,93.32,39Z" transform="translate(-67.15 -7.07)"/><path class="cls-3" d="M119.68,39a1.45,1.45,0,1,0,.42,1A1.5,1.5,0,0,0,119.68,39Z" transform="translate(-67.15 -7.07)"/><path class="cls-3" d="M97.2,50h-10a1.43,1.43,0,0,0,0,2.86h10a1.43,1.43,0,0,0,0-2.86Z" transform="translate(-67.15 -7.07)"/><path class="cls-3" d="M79,50.42a1.41,1.41,0,0,0-.41,1,1.44,1.44,0,0,0,2.45,1,1.45,1.45,0,0,0,0-2A1.5,1.5,0,0,0,79,50.42Z" transform="translate(-67.15 -7.07)"/><path class="cls-4" d="M115.15,48.7h0A2.35,2.35,0,0,0,118.37,50h0a2.35,2.35,0,0,1,3.13,3.13h0a2.35,2.35,0,0,0,1.33,3.22h0a2.35,2.35,0,0,1,0,4.42h0A2.35,2.35,0,0,0,121.5,64h0a2.35,2.35,0,0,1-3.13,3.13h0a2.35,2.35,0,0,0-3.22,1.33h0a2.35,2.35,0,0,1-4.42,0h0a2.35,2.35,0,0,0-3.22-1.33h0A2.35,2.35,0,0,1,104.38,64h0a2.35,2.35,0,0,0-1.33-3.22h0a2.35,2.35,0,0,1,0-4.42h0a2.35,2.35,0,0,0,1.33-3.22h0A2.35,2.35,0,0,1,107.51,50h0a2.35,2.35,0,0,0,3.22-1.33h0A2.35,2.35,0,0,1,115.15,48.7Z" transform="translate(-67.15 -7.07)"/><path class="cls-5" d="M118.37,67.14a2.35,2.35,0,0,0-3.22,1.33,2.35,2.35,0,0,1-4.42,0,2.34,2.34,0,0,0-3.22-1.33,2.3,2.3,0,0,1-.29.09V82.91l5.72-5.72,5.72,5.72V67.23A2.29,2.29,0,0,1,118.37,67.14Z" transform="translate(-67.15 -7.07)"/><rect id="p" x="11.64" y="60.54" width="0.68" height="0.68"/><rect id="p-2" data-name="p" x="11.64" y="61.22" width="0.68" height="0.68"/><rect id="p-3" data-name="p" x="11.64" y="61.9" width="0.68" height="0.68"/><rect id="p-4" data-name="p" x="11.64" y="62.58" width="0.68" height="0.68"/><rect id="p-5" data-name="p" x="11.64" y="63.26" width="0.68" height="0.68"/><rect id="p-6" data-name="p" x="11.64" y="63.94" width="0.68" height="0.68"/><rect id="p-7" data-name="p" x="11.64" y="64.63" width="0.68" height="0.68"/><rect id="p-8" data-name="p" x="11.64" y="65.99" width="0.68" height="0.68"/><rect id="p-9" data-name="p" x="11.64" y="66.67" width="0.68" height="0.68"/><rect id="p-10" data-name="p" x="11.64" y="68.03" width="0.68" height="0.68"/><rect id="p-11" data-name="p" x="11.64" y="68.71" width="0.68" height="0.68"/><rect id="p-12" data-name="p" x="11.64" y="70.08" width="0.68" height="0.68"/><rect id="p-13" data-name="p" x="11.64" y="70.76" width="0.68" height="0.68"/><rect id="p-14" data-name="p" x="11.64" y="71.44" width="0.68" height="0.68"/><rect id="p-15" data-name="p" x="11.64" y="72.12" width="0.68" height="0.68"/><rect id="p-16" data-name="p" x="11.64" y="72.8" width="0.68" height="0.68"/><rect id="p-17" data-name="p" x="11.64" y="73.48" width="0.68" height="0.68"/><rect id="p-18" data-name="p" x="11.64" y="74.16" width="0.68" height="0.68"/><rect id="p-19" data-name="p" x="12.32" y="60.54" width="0.68" height="0.68"/><rect id="p-20" data-name="p" x="12.32" y="64.63" width="0.68" height="0.68"/><rect id="p-21" data-name="p" x="12.32" y="65.99" width="0.68" height="0.68"/><rect id="p-22" data-name="p" x="12.32" y="68.03" width="0.68" height="0.68"/><rect id="p-23" data-name="p" x="12.32" y="70.08" width="0.68" height="0.68"/><rect id="p-24" data-name="p" x="12.32" y="74.16" width="0.68" height="0.68"/><rect id="p-25" data-name="p" x="13" y="60.54" width="0.68" height="0.68"/><rect id="p-26" data-name="p" x="13" y="61.9" width="0.68" height="0.68"/><rect id="p-27" data-name="p" x="13" y="62.58" width="0.68" height="0.68"/><rect id="p-28" data-name="p" x="13" y="63.26" width="0.68" height="0.68"/><rect id="p-29" data-name="p" x="13" y="64.63" width="0.68" height="0.68"/><rect id="p-30" data-name="p" x="13" y="65.99" width="0.68" height="0.68"/><rect id="p-31" data-name="p" x="13" y="66.67" width="0.68" height="0.68"/><rect id="p-32" data-name="p" x="13" y="68.03" width="0.68" height="0.68"/><rect id="p-33" data-name="p" x="13" y="70.08" width="0.68" height="0.68"/><rect id="p-34" data-name="p" x="13" y="71.44" width="0.68" height="0.68"/><rect id="p-35" data-name="p" x="13" y="72.12" width="0.68" height="0.68"/><rect id="p-36" data-name="p" x="13" y="72.8" width="0.68" height="0.68"/><rect id="p-37" data-name="p" x="13" y="74.16" width="0.68" height="0.68"/><rect id="p-38" data-name="p" x="13.68" y="60.54" width="0.68" height="0.68"/><rect id="p-39" data-name="p" x="13.68" y="61.9" width="0.68" height="0.68"/><rect id="p-40" data-name="p" x="13.68" y="62.58" width="0.68" height="0.68"/><rect id="p-41" data-name="p" x="13.68" y="63.26" width="0.68" height="0.68"/><rect id="p-42" data-name="p" x="13.68" y="64.63" width="0.68" height="0.68"/><rect id="p-43" data-name="p" x="13.68" y="67.35" width="0.68" height="0.68"/><rect id="p-44" data-name="p" x="13.68" y="68.03" width="0.68" height="0.68"/><rect id="p-45" data-name="p" x="13.68" y="68.71" width="0.68" height="0.68"/><rect id="p-46" data-name="p" x="13.68" y="70.08" width="0.68" height="0.68"/><rect id="p-47" data-name="p" x="13.68" y="71.44" width="0.68" height="0.68"/><rect id="p-48" data-name="p" x="13.68" y="72.12" width="0.68" height="0.68"/><rect id="p-49" data-name="p" x="13.68" y="72.8" width="0.68" height="0.68"/><rect id="p-50" data-name="p" x="13.68" y="74.16" width="0.68" height="0.68"/><rect id="p-51" data-name="p" x="14.36" y="60.54" width="0.68" height="0.68"/><rect id="p-52" data-name="p" x="14.36" y="61.9" width="0.68" height="0.68"/><rect id="p-53" data-name="p" x="14.36" y="62.58" width="0.68" height="0.68"/><rect id="p-54" data-name="p" x="14.36" y="63.26" width="0.68" height="0.68"/><rect id="p-55" data-name="p" x="14.36" y="64.63" width="0.68" height="0.68"/><rect id="p-56" data-name="p" x="14.36" y="65.99" width="0.68" height="0.68"/><rect id="p-57" data-name="p" x="14.36" y="68.03" width="0.68" height="0.68"/><rect id="p-58" data-name="p" x="14.36" y="70.08" width="0.68" height="0.68"/><rect id="p-59" data-name="p" x="14.36" y="71.44" width="0.68" height="0.68"/><rect id="p-60" data-name="p" x="14.36" y="72.12" width="0.68" height="0.68"/><rect id="p-61" data-name="p" x="14.36" y="72.8" width="0.68" height="0.68"/><rect id="p-62" data-name="p" x="14.36" y="74.16" width="0.68" height="0.68"/><rect id="p-63" data-name="p" x="15.04" y="60.54" width="0.68" height="0.68"/><rect id="p-64" data-name="p" x="15.04" y="64.63" width="0.68" height="0.68"/><rect id="p-65" data-name="p" x="15.04" y="65.99" width="0.68" height="0.68"/><rect id="p-66" data-name="p" x="15.04" y="68.71" width="0.68" height="0.68"/><rect id="p-67" data-name="p" x="15.04" y="70.08" width="0.68" height="0.68"/><rect id="p-68" data-name="p" x="15.04" y="74.16" width="0.68" height="0.68"/><rect id="p-69" data-name="p" x="15.73" y="60.54" width="0.68" height="0.68"/><rect id="p-70" data-name="p" x="15.73" y="61.22" width="0.68" height="0.68"/><rect id="p-71" data-name="p" x="15.73" y="61.9" width="0.68" height="0.68"/><rect id="p-72" data-name="p" x="15.73" y="62.58" width="0.68" height="0.68"/><rect id="p-73" data-name="p" x="15.73" y="63.26" width="0.68" height="0.68"/><rect id="p-74" data-name="p" x="15.73" y="63.94" width="0.68" height="0.68"/><rect id="p-75" data-name="p" x="15.73" y="64.63" width="0.68" height="0.68"/><rect id="p-76" data-name="p" x="15.73" y="65.99" width="0.68" height="0.68"/><rect id="p-77" data-name="p" x="15.73" y="67.35" width="0.68" height="0.68"/><rect id="p-78" data-name="p" x="15.73" y="68.71" width="0.68" height="0.68"/><rect id="p-79" data-name="p" x="15.73" y="70.08" width="0.68" height="0.68"/><rect id="p-80" data-name="p" x="15.73" y="70.76" width="0.68" height="0.68"/><rect id="p-81" data-name="p" x="15.73" y="71.44" width="0.68" height="0.68"/><rect id="p-82" data-name="p" x="15.73" y="72.12" width="0.68" height="0.68"/><rect id="p-83" data-name="p" x="15.73" y="72.8" width="0.68" height="0.68"/><rect id="p-84" data-name="p" x="15.73" y="73.48" width="0.68" height="0.68"/><rect id="p-85" data-name="p" x="15.73" y="74.16" width="0.68" height="0.68"/><rect id="p-86" data-name="p" x="16.41" y="65.99" width="0.68" height="0.68"/><rect id="p-87" data-name="p" x="16.41" y="66.67" width="0.68" height="0.68"/><rect id="p-88" data-name="p" x="16.41" y="67.35" width="0.68" height="0.68"/><rect id="p-89" data-name="p" x="16.41" y="68.71" width="0.68" height="0.68"/><rect id="p-90" data-name="p" x="17.09" y="61.9" width="0.68" height="0.68"/><rect id="p-91" data-name="p" x="17.09" y="64.63" width="0.68" height="0.68"/><rect id="p-92" data-name="p" x="17.09" y="65.31" width="0.68" height="0.68"/><rect id="p-93" data-name="p" x="17.09" y="65.99" width="0.68" height="0.68"/><rect id="p-94" data-name="p" x="17.09" y="68.03" width="0.68" height="0.68"/><rect id="p-95" data-name="p" x="17.09" y="68.71" width="0.68" height="0.68"/><rect id="p-96" data-name="p" x="17.09" y="69.39" width="0.68" height="0.68"/><rect id="p-97" data-name="p" x="17.09" y="70.08" width="0.68" height="0.68"/><rect id="p-98" data-name="p" x="17.09" y="70.76" width="0.68" height="0.68"/><rect id="p-99" data-name="p" x="17.09" y="71.44" width="0.68" height="0.68"/><rect id="p-100" data-name="p" x="17.09" y="72.8" width="0.68" height="0.68"/><rect id="p-101" data-name="p" x="17.09" y="73.48" width="0.68" height="0.68"/><rect id="p-102" data-name="p" x="17.09" y="74.16" width="0.68" height="0.68"/><rect id="p-103" data-name="p" x="17.77" y="60.54" width="0.68" height="0.68"/><rect id="p-104" data-name="p" x="17.77" y="61.22" width="0.68" height="0.68"/><rect id="p-105" data-name="p" x="17.77" y="61.9" width="0.68" height="0.68"/><rect id="p-106" data-name="p" x="17.77" y="62.58" width="0.68" height="0.68"/><rect id="p-107" data-name="p" x="17.77" y="65.31" width="0.68" height="0.68"/><rect id="p-108" data-name="p" x="17.77" y="65.99" width="0.68" height="0.68"/><rect id="p-109" data-name="p" x="17.77" y="66.67" width="0.68" height="0.68"/><rect id="p-110" data-name="p" x="17.77" y="71.44" width="0.68" height="0.68"/><rect id="p-111" data-name="p" x="17.77" y="72.12" width="0.68" height="0.68"/><rect id="p-112" data-name="p" x="17.77" y="72.8" width="0.68" height="0.68"/><rect id="p-113" data-name="p" x="17.77" y="74.16" width="0.68" height="0.68"/><rect id="p-114" data-name="p" x="18.45" y="61.22" width="0.68" height="0.68"/><rect id="p-115" data-name="p" x="18.45" y="63.26" width="0.68" height="0.68"/><rect id="p-116" data-name="p" x="18.45" y="64.63" width="0.68" height="0.68"/><rect id="p-117" data-name="p" x="18.45" y="65.99" width="0.68" height="0.68"/><rect id="p-118" data-name="p" x="18.45" y="66.67" width="0.68" height="0.68"/><rect id="p-119" data-name="p" x="18.45" y="67.35" width="0.68" height="0.68"/><rect id="p-120" data-name="p" x="18.45" y="68.03" width="0.68" height="0.68"/><rect id="p-121" data-name="p" x="18.45" y="70.08" width="0.68" height="0.68"/><rect id="p-122" data-name="p" x="18.45" y="72.8" width="0.68" height="0.68"/><rect id="p-123" data-name="p" x="18.45" y="73.48" width="0.68" height="0.68"/><rect id="p-124" data-name="p" x="19.13" y="60.54" width="0.68" height="0.68"/><rect id="p-125" data-name="p" x="19.13" y="61.22" width="0.68" height="0.68"/><rect id="p-126" data-name="p" x="19.13" y="61.9" width="0.68" height="0.68"/><rect id="p-127" data-name="p" x="19.13" y="62.58" width="0.68" height="0.68"/><rect id="p-128" data-name="p" x="19.13" y="65.31" width="0.68" height="0.68"/><rect id="p-129" data-name="p" x="19.13" y="65.99" width="0.68" height="0.68"/><rect id="p-130" data-name="p" x="19.13" y="69.39" width="0.68" height="0.68"/><rect id="p-131" data-name="p" x="19.13" y="70.08" width="0.68" height="0.68"/><rect id="p-132" data-name="p" x="19.13" y="70.76" width="0.68" height="0.68"/><rect id="p-133" data-name="p" x="19.13" y="71.44" width="0.68" height="0.68"/><rect id="p-134" data-name="p" x="19.81" y="60.54" width="0.68" height="0.68"/><rect id="p-135" data-name="p" x="19.81" y="61.9" width="0.68" height="0.68"/><rect id="p-136" data-name="p" x="19.81" y="63.26" width="0.68" height="0.68"/><rect id="p-137" data-name="p" x="19.81" y="63.94" width="0.68" height="0.68"/><rect id="p-138" data-name="p" x="19.81" y="64.63" width="0.68" height="0.68"/><rect id="p-139" data-name="p" x="19.81" y="65.31" width="0.68" height="0.68"/><rect id="p-140" data-name="p" x="19.81" y="67.35" width="0.68" height="0.68"/><rect id="p-141" data-name="p" x="19.81" y="68.71" width="0.68" height="0.68"/><rect id="p-142" data-name="p" x="19.81" y="70.76" width="0.68" height="0.68"/><rect id="p-143" data-name="p" x="19.81" y="72.8" width="0.68" height="0.68"/><rect id="p-144" data-name="p" x="19.81" y="74.16" width="0.68" height="0.68"/><rect id="p-145" data-name="p" x="20.49" y="65.99" width="0.68" height="0.68"/><rect id="p-146" data-name="p" x="20.49" y="69.39" width="0.68" height="0.68"/><rect id="p-147" data-name="p" x="20.49" y="70.08" width="0.68" height="0.68"/><rect id="p-148" data-name="p" x="20.49" y="70.76" width="0.68" height="0.68"/><rect id="p-149" data-name="p" x="20.49" y="71.44" width="0.68" height="0.68"/><rect id="p-150" data-name="p" x="21.17" y="60.54" width="0.68" height="0.68"/><rect id="p-151" data-name="p" x="21.17" y="61.22" width="0.68" height="0.68"/><rect id="p-152" data-name="p" x="21.17" y="61.9" width="0.68" height="0.68"/><rect id="p-153" data-name="p" x="21.17" y="62.58" width="0.68" height="0.68"/><rect id="p-154" data-name="p" x="21.17" y="63.26" width="0.68" height="0.68"/><rect id="p-155" data-name="p" x="21.17" y="63.94" width="0.68" height="0.68"/><rect id="p-156" data-name="p" x="21.17" y="64.63" width="0.68" height="0.68"/><rect id="p-157" data-name="p" x="21.17" y="65.99" width="0.68" height="0.68"/><rect id="p-158" data-name="p" x="21.17" y="66.67" width="0.68" height="0.68"/><rect id="p-159" data-name="p" x="21.17" y="68.03" width="0.68" height="0.68"/><rect id="p-160" data-name="p" x="21.17" y="68.71" width="0.68" height="0.68"/><rect id="p-161" data-name="p" x="21.17" y="70.08" width="0.68" height="0.68"/><rect id="p-162" data-name="p" x="21.17" y="71.44" width="0.68" height="0.68"/><rect id="p-163" data-name="p" x="21.17" y="72.12" width="0.68" height="0.68"/><rect id="p-164" data-name="p" x="21.17" y="73.48" width="0.68" height="0.68"/><rect id="p-165" data-name="p" x="21.17" y="74.16" width="0.68" height="0.68"/><rect id="p-166" data-name="p" x="21.86" y="60.54" width="0.68" height="0.68"/><rect id="p-167" data-name="p" x="21.86" y="64.63" width="0.68" height="0.68"/><rect id="p-168" data-name="p" x="21.86" y="66.67" width="0.68" height="0.68"/><rect id="p-169" data-name="p" x="21.86" y="70.08" width="0.68" height="0.68"/><rect id="p-170" data-name="p" x="21.86" y="71.44" width="0.68" height="0.68"/><rect id="p-171" data-name="p" x="21.86" y="72.12" width="0.68" height="0.68"/><rect id="p-172" data-name="p" x="21.86" y="72.8" width="0.68" height="0.68"/><rect id="p-173" data-name="p" x="21.86" y="73.48" width="0.68" height="0.68"/><rect id="p-174" data-name="p" x="21.86" y="74.16" width="0.68" height="0.68"/><rect id="p-175" data-name="p" x="22.54" y="60.54" width="0.68" height="0.68"/><rect id="p-176" data-name="p" x="22.54" y="61.9" width="0.68" height="0.68"/><rect id="p-177" data-name="p" x="22.54" y="62.58" width="0.68" height="0.68"/><rect id="p-178" data-name="p" x="22.54" y="63.26" width="0.68" height="0.68"/><rect id="p-179" data-name="p" x="22.54" y="64.63" width="0.68" height="0.68"/><rect id="p-180" data-name="p" x="22.54" y="67.35" width="0.68" height="0.68"/><rect id="p-181" data-name="p" x="22.54" y="69.39" width="0.68" height="0.68"/><rect id="p-182" data-name="p" x="22.54" y="70.08" width="0.68" height="0.68"/><rect id="p-183" data-name="p" x="22.54" y="72.12" width="0.68" height="0.68"/><rect id="p-184" data-name="p" x="22.54" y="72.8" width="0.68" height="0.68"/><rect id="p-185" data-name="p" x="22.54" y="73.48" width="0.68" height="0.68"/><rect id="p-186" data-name="p" x="23.22" y="60.54" width="0.68" height="0.68"/><rect id="p-187" data-name="p" x="23.22" y="61.9" width="0.68" height="0.68"/><rect id="p-188" data-name="p" x="23.22" y="62.58" width="0.68" height="0.68"/><rect id="p-189" data-name="p" x="23.22" y="63.26" width="0.68" height="0.68"/><rect id="p-190" data-name="p" x="23.22" y="64.63" width="0.68" height="0.68"/><rect id="p-191" data-name="p" x="23.22" y="66.67" width="0.68" height="0.68"/><rect id="p-192" data-name="p" x="23.22" y="67.35" width="0.68" height="0.68"/><rect id="p-193" data-name="p" x="23.22" y="69.39" width="0.68" height="0.68"/><rect id="p-194" data-name="p" x="23.22" y="70.08" width="0.68" height="0.68"/><rect id="p-195" data-name="p" x="23.22" y="73.48" width="0.68" height="0.68"/><rect id="p-196" data-name="p" x="23.9" y="60.54" width="0.68" height="0.68"/><rect id="p-197" data-name="p" x="23.9" y="61.9" width="0.68" height="0.68"/><rect id="p-198" data-name="p" x="23.9" y="62.58" width="0.68" height="0.68"/><rect id="p-199" data-name="p" x="23.9" y="63.26" width="0.68" height="0.68"/><rect id="p-200" data-name="p" x="23.9" y="64.63" width="0.68" height="0.68"/><rect id="p-201" data-name="p" x="23.9" y="65.99" width="0.68" height="0.68"/><rect id="p-202" data-name="p" x="23.9" y="70.08" width="0.68" height="0.68"/><rect id="p-203" data-name="p" x="23.9" y="72.12" width="0.68" height="0.68"/><rect id="p-204" data-name="p" x="24.58" y="60.54" width="0.68" height="0.68"/><rect id="p-205" data-name="p" x="24.58" y="64.63" width="0.68" height="0.68"/><rect id="p-206" data-name="p" x="24.58" y="66.67" width="0.68" height="0.68"/><rect id="p-207" data-name="p" x="24.58" y="67.35" width="0.68" height="0.68"/><rect id="p-208" data-name="p" x="24.58" y="69.39" width="0.68" height="0.68"/><rect id="p-209" data-name="p" x="24.58" y="70.08" width="0.68" height="0.68"/><rect id="p-210" data-name="p" x="24.58" y="71.44" width="0.68" height="0.68"/><rect id="p-211" data-name="p" x="24.58" y="72.12" width="0.68" height="0.68"/><rect id="p-212" data-name="p" x="24.58" y="73.48" width="0.68" height="0.68"/><rect id="p-213" data-name="p" x="24.58" y="74.16" width="0.68" height="0.68"/><rect id="p-214" data-name="p" x="25.26" y="60.54" width="0.68" height="0.68"/><rect id="p-215" data-name="p" x="25.26" y="61.22" width="0.68" height="0.68"/><rect id="p-216" data-name="p" x="25.26" y="61.9" width="0.68" height="0.68"/><rect id="p-217" data-name="p" x="25.26" y="62.58" width="0.68" height="0.68"/><rect id="p-218" data-name="p" x="25.26" y="63.26" width="0.68" height="0.68"/><rect id="p-219" data-name="p" x="25.26" y="63.94" width="0.68" height="0.68"/><rect id="p-220" data-name="p" x="25.26" y="64.63" width="0.68" height="0.68"/><rect id="p-221" data-name="p" x="25.26" y="66.67" width="0.68" height="0.68"/><rect id="p-222" data-name="p" x="25.26" y="67.35" width="0.68" height="0.68"/><rect id="p-223" data-name="p" x="25.26" y="69.39" width="0.68" height="0.68"/><rect id="p-224" data-name="p" x="25.26" y="70.08" width="0.68" height="0.68"/><rect id="p-225" data-name="p" x="25.26" y="70.76" width="0.68" height="0.68"/><rect id="p-226" data-name="p" x="25.26" y="71.44" width="0.68" height="0.68"/><rect id="p-227" data-name="p" x="25.26" y="72.8" width="0.68" height="0.68"/><rect id="p-228" data-name="p" x="25.26" y="74.16" width="0.68" height="0.68"/></svg>