<?xml version="1.0" encoding="UTF-8"?>
<svg xmlns="http://www.w3.org/2000/svg" xmlns:xlink="http://www.w3.org/1999/xlink" version="1.1" width="100px" height="100px" viewBox="0 0 100 100"><defs><rect id="r0" width="2" height="2" fill="#000000"/></defs><rect x="0" y="0" width="100" height="100" fill="#fefefe"/><use x="21" y="21" xlink:href="#r0"/><use x="23" y="21" xlink:href="#r0"/><use x="25" y="21" xlink:href="#r0"/><use x="27" y="21" xlink:href="#r0"/><use x="29" y="21" xlink:href="#r0"/><use x="31" y="21" xlink:href="#r0"/><use x="33" y="21" xlink:href="#r0"/><use x="37" y="21" xlink:href="#r0"/><use x="43" y="21" xlink:href="#r0"/><use x="45" y="21" xlink:href="#r0"/><use x="47" y="21" xlink:href="#r0"/><use x="53" y="21" xlink:href="#r0"/><use x="57" y="21" xlink:href="#r0"/><use x="61" y="21" xlink:href="#r0"/><use x="65" y="21" xlink:href="#r0"/><use x="67" y="21" xlink:href="#r0"/><use x="69" y="21" xlink:href="#r0"/><use x="71" y="21" xlink:href="#r0"/><use x="73" y="21" xlink:href="#r0"/><use x="75" y="21" xlink:href="#r0"/><use x="77" y="21" xlink:href="#r0"/><use x="21" y="23" xlink:href="#r0"/><use x="33" y="23" xlink:href="#r0"/><use x="37" y="23" xlink:href="#r0"/><use x="41" y="23" xlink:href="#r0"/><use x="47" y="23" xlink:href="#r0"/><use x="59" y="23" xlink:href="#r0"/><use x="65" y="23" xlink:href="#r0"/><use x="77" y="23" xlink:href="#r0"/><use x="21" y="25" xlink:href="#r0"/><use x="25" y="25" xlink:href="#r0"/><use x="27" y="25" xlink:href="#r0"/><use x="29" y="25" xlink:href="#r0"/><use x="33" y="25" xlink:href="#r0"/><use x="37" y="25" xlink:href="#r0"/><use x="41" y="25" xlink:href="#r0"/><use x="53" y="25" xlink:href="#r0"/><use x="57" y="25" xlink:href="#r0"/><use x="59" y="25" xlink:href="#r0"/><use x="61" y="25" xlink:href="#r0"/><use x="65" y="25" xlink:href="#r0"/><use x="69" y="25" xlink:href="#r0"/><use x="71" y="25" xlink:href="#r0"/><use x="73" y="25" xlink:href="#r0"/><use x="77" y="25" xlink:href="#r0"/><use x="21" y="27" xlink:href="#r0"/><use x="25" y="27" xlink:href="#r0"/><use x="27" y="27" xlink:href="#r0"/><use x="29" y="27" xlink:href="#r0"/><use x="33" y="27" xlink:href="#r0"/><use x="43" y="27" xlink:href="#r0"/><use x="45" y="27" xlink:href="#r0"/><use x="47" y="27" xlink:href="#r0"/><use x="51" y="27" xlink:href="#r0"/><use x="55" y="27" xlink:href="#r0"/><use x="59" y="27" xlink:href="#r0"/><use x="61" y="27" xlink:href="#r0"/><use x="65" y="27" xlink:href="#r0"/><use x="69" y="27" xlink:href="#r0"/><use x="71" y="27" xlink:href="#r0"/><use x="73" y="27" xlink:href="#r0"/><use x="77" y="27" xlink:href="#r0"/><use x="21" y="29" xlink:href="#r0"/><use x="25" y="29" xlink:href="#r0"/><use x="27" y="29" xlink:href="#r0"/><use x="29" y="29" xlink:href="#r0"/><use x="33" y="29" xlink:href="#r0"/><use x="39" y="29" xlink:href="#r0"/><use x="45" y="29" xlink:href="#r0"/><use x="47" y="29" xlink:href="#r0"/><use x="51" y="29" xlink:href="#r0"/><use x="53" y="29" xlink:href="#r0"/><use x="57" y="29" xlink:href="#r0"/><use x="59" y="29" xlink:href="#r0"/><use x="61" y="29" xlink:href="#r0"/><use x="65" y="29" xlink:href="#r0"/><use x="69" y="29" xlink:href="#r0"/><use x="71" y="29" xlink:href="#r0"/><use x="73" y="29" xlink:href="#r0"/><use x="77" y="29" xlink:href="#r0"/><use x="21" y="31" xlink:href="#r0"/><use x="33" y="31" xlink:href="#r0"/><use x="37" y="31" xlink:href="#r0"/><use x="41" y="31" xlink:href="#r0"/><use x="43" y="31" xlink:href="#r0"/><use x="45" y="31" xlink:href="#r0"/><use x="47" y="31" xlink:href="#r0"/><use x="57" y="31" xlink:href="#r0"/><use x="65" y="31" xlink:href="#r0"/><use x="77" y="31" xlink:href="#r0"/><use x="21" y="33" xlink:href="#r0"/><use x="23" y="33" xlink:href="#r0"/><use x="25" y="33" xlink:href="#r0"/><use x="27" y="33" xlink:href="#r0"/><use x="29" y="33" xlink:href="#r0"/><use x="31" y="33" xlink:href="#r0"/><use x="33" y="33" xlink:href="#r0"/><use x="37" y="33" xlink:href="#r0"/><use x="41" y="33" xlink:href="#r0"/><use x="45" y="33" xlink:href="#r0"/><use x="49" y="33" xlink:href="#r0"/><use x="53" y="33" xlink:href="#r0"/><use x="57" y="33" xlink:href="#r0"/><use x="61" y="33" xlink:href="#r0"/><use x="65" y="33" xlink:href="#r0"/><use x="67" y="33" xlink:href="#r0"/><use x="69" y="33" xlink:href="#r0"/><use x="71" y="33" xlink:href="#r0"/><use x="73" y="33" xlink:href="#r0"/><use x="75" y="33" xlink:href="#r0"/><use x="77" y="33" xlink:href="#r0"/><use x="37" y="35" xlink:href="#r0"/><use x="49" y="35" xlink:href="#r0"/><use x="53" y="35" xlink:href="#r0"/><use x="59" y="35" xlink:href="#r0"/><use x="61" y="35" xlink:href="#r0"/><use x="25" y="37" xlink:href="#r0"/><use x="27" y="37" xlink:href="#r0"/><use x="29" y="37" xlink:href="#r0"/><use x="33" y="37" xlink:href="#r0"/><use x="37" y="37" xlink:href="#r0"/><use x="39" y="37" xlink:href="#r0"/><use x="43" y="37" xlink:href="#r0"/><use x="47" y="37" xlink:href="#r0"/><use x="53" y="37" xlink:href="#r0"/><use x="57" y="37" xlink:href="#r0"/><use x="59" y="37" xlink:href="#r0"/><use x="63" y="37" xlink:href="#r0"/><use x="65" y="37" xlink:href="#r0"/><use x="67" y="37" xlink:href="#r0"/><use x="73" y="37" xlink:href="#r0"/><use x="75" y="37" xlink:href="#r0"/><use x="77" y="37" xlink:href="#r0"/><use x="21" y="39" xlink:href="#r0"/><use x="23" y="39" xlink:href="#r0"/><use x="27" y="39" xlink:href="#r0"/><use x="35" y="39" xlink:href="#r0"/><use x="37" y="39" xlink:href="#r0"/><use x="39" y="39" xlink:href="#r0"/><use x="43" y="39" xlink:href="#r0"/><use x="45" y="39" xlink:href="#r0"/><use x="49" y="39" xlink:href="#r0"/><use x="51" y="39" xlink:href="#r0"/><use x="53" y="39" xlink:href="#r0"/><use x="63" y="39" xlink:href="#r0"/><use x="65" y="39" xlink:href="#r0"/><use x="67" y="39" xlink:href="#r0"/><use x="69" y="39" xlink:href="#r0"/><use x="75" y="39" xlink:href="#r0"/><use x="77" y="39" xlink:href="#r0"/><use x="21" y="41" xlink:href="#r0"/><use x="25" y="41" xlink:href="#r0"/><use x="27" y="41" xlink:href="#r0"/><use x="31" y="41" xlink:href="#r0"/><use x="33" y="41" xlink:href="#r0"/><use x="37" y="41" xlink:href="#r0"/><use x="39" y="41" xlink:href="#r0"/><use x="41" y="41" xlink:href="#r0"/><use x="43" y="41" xlink:href="#r0"/><use x="45" y="41" xlink:href="#r0"/><use x="47" y="41" xlink:href="#r0"/><use x="55" y="41" xlink:href="#r0"/><use x="61" y="41" xlink:href="#r0"/><use x="65" y="41" xlink:href="#r0"/><use x="67" y="41" xlink:href="#r0"/><use x="71" y="41" xlink:href="#r0"/><use x="21" y="43" xlink:href="#r0"/><use x="23" y="43" xlink:href="#r0"/><use x="27" y="43" xlink:href="#r0"/><use x="29" y="43" xlink:href="#r0"/><use x="37" y="43" xlink:href="#r0"/><use x="41" y="43" xlink:href="#r0"/><use x="45" y="43" xlink:href="#r0"/><use x="47" y="43" xlink:href="#r0"/><use x="51" y="43" xlink:href="#r0"/><use x="55" y="43" xlink:href="#r0"/><use x="57" y="43" xlink:href="#r0"/><use x="69" y="43" xlink:href="#r0"/><use x="25" y="45" xlink:href="#r0"/><use x="29" y="45" xlink:href="#r0"/><use x="31" y="45" xlink:href="#r0"/><use x="33" y="45" xlink:href="#r0"/><use x="39" y="45" xlink:href="#r0"/><use x="53" y="45" xlink:href="#r0"/><use x="55" y="45" xlink:href="#r0"/><use x="57" y="45" xlink:href="#r0"/><use x="73" y="45" xlink:href="#r0"/><use x="77" y="45" xlink:href="#r0"/><use x="27" y="47" xlink:href="#r0"/><use x="35" y="47" xlink:href="#r0"/><use x="43" y="47" xlink:href="#r0"/><use x="47" y="47" xlink:href="#r0"/><use x="49" y="47" xlink:href="#r0"/><use x="53" y="47" xlink:href="#r0"/><use x="55" y="47" xlink:href="#r0"/><use x="57" y="47" xlink:href="#r0"/><use x="59" y="47" xlink:href="#r0"/><use x="61" y="47" xlink:href="#r0"/><use x="63" y="47" xlink:href="#r0"/><use x="65" y="47" xlink:href="#r0"/><use x="67" y="47" xlink:href="#r0"/><use x="69" y="47" xlink:href="#r0"/><use x="75" y="47" xlink:href="#r0"/><use x="77" y="47" xlink:href="#r0"/><use x="25" y="49" xlink:href="#r0"/><use x="27" y="49" xlink:href="#r0"/><use x="31" y="49" xlink:href="#r0"/><use x="33" y="49" xlink:href="#r0"/><use x="35" y="49" xlink:href="#r0"/><use x="37" y="49" xlink:href="#r0"/><use x="41" y="49" xlink:href="#r0"/><use x="45" y="49" xlink:href="#r0"/><use x="49" y="49" xlink:href="#r0"/><use x="55" y="49" xlink:href="#r0"/><use x="57" y="49" xlink:href="#r0"/><use x="61" y="49" xlink:href="#r0"/><use x="65" y="49" xlink:href="#r0"/><use x="69" y="49" xlink:href="#r0"/><use x="71" y="49" xlink:href="#r0"/><use x="29" y="51" xlink:href="#r0"/><use x="31" y="51" xlink:href="#r0"/><use x="35" y="51" xlink:href="#r0"/><use x="39" y="51" xlink:href="#r0"/><use x="49" y="51" xlink:href="#r0"/><use x="51" y="51" xlink:href="#r0"/><use x="55" y="51" xlink:href="#r0"/><use x="57" y="51" xlink:href="#r0"/><use x="65" y="51" xlink:href="#r0"/><use x="69" y="51" xlink:href="#r0"/><use x="71" y="51" xlink:href="#r0"/><use x="75" y="51" xlink:href="#r0"/><use x="21" y="53" xlink:href="#r0"/><use x="23" y="53" xlink:href="#r0"/><use x="25" y="53" xlink:href="#r0"/><use x="29" y="53" xlink:href="#r0"/><use x="31" y="53" xlink:href="#r0"/><use x="33" y="53" xlink:href="#r0"/><use x="37" y="53" xlink:href="#r0"/><use x="43" y="53" xlink:href="#r0"/><use x="47" y="53" xlink:href="#r0"/><use x="49" y="53" xlink:href="#r0"/><use x="51" y="53" xlink:href="#r0"/><use x="53" y="53" xlink:href="#r0"/><use x="59" y="53" xlink:href="#r0"/><use x="69" y="53" xlink:href="#r0"/><use x="73" y="53" xlink:href="#r0"/><use x="75" y="53" xlink:href="#r0"/><use x="21" y="55" xlink:href="#r0"/><use x="25" y="55" xlink:href="#r0"/><use x="27" y="55" xlink:href="#r0"/><use x="37" y="55" xlink:href="#r0"/><use x="45" y="55" xlink:href="#r0"/><use x="53" y="55" xlink:href="#r0"/><use x="57" y="55" xlink:href="#r0"/><use x="59" y="55" xlink:href="#r0"/><use x="63" y="55" xlink:href="#r0"/><use x="65" y="55" xlink:href="#r0"/><use x="67" y="55" xlink:href="#r0"/><use x="69" y="55" xlink:href="#r0"/><use x="75" y="55" xlink:href="#r0"/><use x="21" y="57" xlink:href="#r0"/><use x="25" y="57" xlink:href="#r0"/><use x="27" y="57" xlink:href="#r0"/><use x="29" y="57" xlink:href="#r0"/><use x="31" y="57" xlink:href="#r0"/><use x="33" y="57" xlink:href="#r0"/><use x="35" y="57" xlink:href="#r0"/><use x="37" y="57" xlink:href="#r0"/><use x="39" y="57" xlink:href="#r0"/><use x="43" y="57" xlink:href="#r0"/><use x="45" y="57" xlink:href="#r0"/><use x="47" y="57" xlink:href="#r0"/><use x="51" y="57" xlink:href="#r0"/><use x="53" y="57" xlink:href="#r0"/><use x="55" y="57" xlink:href="#r0"/><use x="61" y="57" xlink:href="#r0"/><use x="21" y="59" xlink:href="#r0"/><use x="27" y="59" xlink:href="#r0"/><use x="29" y="59" xlink:href="#r0"/><use x="35" y="59" xlink:href="#r0"/><use x="45" y="59" xlink:href="#r0"/><use x="49" y="59" xlink:href="#r0"/><use x="61" y="59" xlink:href="#r0"/><use x="69" y="59" xlink:href="#r0"/><use x="71" y="59" xlink:href="#r0"/><use x="75" y="59" xlink:href="#r0"/><use x="77" y="59" xlink:href="#r0"/><use x="21" y="61" xlink:href="#r0"/><use x="31" y="61" xlink:href="#r0"/><use x="33" y="61" xlink:href="#r0"/><use x="35" y="61" xlink:href="#r0"/><use x="37" y="61" xlink:href="#r0"/><use x="39" y="61" xlink:href="#r0"/><use x="43" y="61" xlink:href="#r0"/><use x="47" y="61" xlink:href="#r0"/><use x="49" y="61" xlink:href="#r0"/><use x="53" y="61" xlink:href="#r0"/><use x="61" y="61" xlink:href="#r0"/><use x="63" y="61" xlink:href="#r0"/><use x="65" y="61" xlink:href="#r0"/><use x="67" y="61" xlink:href="#r0"/><use x="69" y="61" xlink:href="#r0"/><use x="71" y="61" xlink:href="#r0"/><use x="37" y="63" xlink:href="#r0"/><use x="41" y="63" xlink:href="#r0"/><use x="45" y="63" xlink:href="#r0"/><use x="47" y="63" xlink:href="#r0"/><use x="49" y="63" xlink:href="#r0"/><use x="55" y="63" xlink:href="#r0"/><use x="57" y="63" xlink:href="#r0"/><use x="61" y="63" xlink:href="#r0"/><use x="69" y="63" xlink:href="#r0"/><use x="73" y="63" xlink:href="#r0"/><use x="75" y="63" xlink:href="#r0"/><use x="77" y="63" xlink:href="#r0"/><use x="21" y="65" xlink:href="#r0"/><use x="23" y="65" xlink:href="#r0"/><use x="25" y="65" xlink:href="#r0"/><use x="27" y="65" xlink:href="#r0"/><use x="29" y="65" xlink:href="#r0"/><use x="31" y="65" xlink:href="#r0"/><use x="33" y="65" xlink:href="#r0"/><use x="45" y="65" xlink:href="#r0"/><use x="47" y="65" xlink:href="#r0"/><use x="55" y="65" xlink:href="#r0"/><use x="59" y="65" xlink:href="#r0"/><use x="61" y="65" xlink:href="#r0"/><use x="65" y="65" xlink:href="#r0"/><use x="69" y="65" xlink:href="#r0"/><use x="71" y="65" xlink:href="#r0"/><use x="73" y="65" xlink:href="#r0"/><use x="75" y="65" xlink:href="#r0"/><use x="21" y="67" xlink:href="#r0"/><use x="33" y="67" xlink:href="#r0"/><use x="41" y="67" xlink:href="#r0"/><use x="43" y="67" xlink:href="#r0"/><use x="47" y="67" xlink:href="#r0"/><use x="51" y="67" xlink:href="#r0"/><use x="53" y="67" xlink:href="#r0"/><use x="55" y="67" xlink:href="#r0"/><use x="57" y="67" xlink:href="#r0"/><use x="59" y="67" xlink:href="#r0"/><use x="61" y="67" xlink:href="#r0"/><use x="69" y="67" xlink:href="#r0"/><use x="71" y="67" xlink:href="#r0"/><use x="77" y="67" xlink:href="#r0"/><use x="21" y="69" xlink:href="#r0"/><use x="25" y="69" xlink:href="#r0"/><use x="27" y="69" xlink:href="#r0"/><use x="29" y="69" xlink:href="#r0"/><use x="33" y="69" xlink:href="#r0"/><use x="37" y="69" xlink:href="#r0"/><use x="41" y="69" xlink:href="#r0"/><use x="45" y="69" xlink:href="#r0"/><use x="49" y="69" xlink:href="#r0"/><use x="53" y="69" xlink:href="#r0"/><use x="55" y="69" xlink:href="#r0"/><use x="57" y="69" xlink:href="#r0"/><use x="61" y="69" xlink:href="#r0"/><use x="63" y="69" xlink:href="#r0"/><use x="65" y="69" xlink:href="#r0"/><use x="67" y="69" xlink:href="#r0"/><use x="69" y="69" xlink:href="#r0"/><use x="73" y="69" xlink:href="#r0"/><use x="77" y="69" xlink:href="#r0"/><use x="21" y="71" xlink:href="#r0"/><use x="25" y="71" xlink:href="#r0"/><use x="27" y="71" xlink:href="#r0"/><use x="29" y="71" xlink:href="#r0"/><use x="33" y="71" xlink:href="#r0"/><use x="37" y="71" xlink:href="#r0"/><use x="39" y="71" xlink:href="#r0"/><use x="45" y="71" xlink:href="#r0"/><use x="47" y="71" xlink:href="#r0"/><use x="51" y="71" xlink:href="#r0"/><use x="53" y="71" xlink:href="#r0"/><use x="57" y="71" xlink:href="#r0"/><use x="63" y="71" xlink:href="#r0"/><use x="21" y="73" xlink:href="#r0"/><use x="25" y="73" xlink:href="#r0"/><use x="27" y="73" xlink:href="#r0"/><use x="29" y="73" xlink:href="#r0"/><use x="33" y="73" xlink:href="#r0"/><use x="37" y="73" xlink:href="#r0"/><use x="39" y="73" xlink:href="#r0"/><use x="41" y="73" xlink:href="#r0"/><use x="43" y="73" xlink:href="#r0"/><use x="45" y="73" xlink:href="#r0"/><use x="49" y="73" xlink:href="#r0"/><use x="51" y="73" xlink:href="#r0"/><use x="55" y="73" xlink:href="#r0"/><use x="57" y="73" xlink:href="#r0"/><use x="63" y="73" xlink:href="#r0"/><use x="65" y="73" xlink:href="#r0"/><use x="69" y="73" xlink:href="#r0"/><use x="71" y="73" xlink:href="#r0"/><use x="75" y="73" xlink:href="#r0"/><use x="21" y="75" xlink:href="#r0"/><use x="33" y="75" xlink:href="#r0"/><use x="39" y="75" xlink:href="#r0"/><use x="41" y="75" xlink:href="#r0"/><use x="43" y="75" xlink:href="#r0"/><use x="45" y="75" xlink:href="#r0"/><use x="47" y="75" xlink:href="#r0"/><use x="49" y="75" xlink:href="#r0"/><use x="53" y="75" xlink:href="#r0"/><use x="61" y="75" xlink:href="#r0"/><use x="67" y="75" xlink:href="#r0"/><use x="69" y="75" xlink:href="#r0"/><use x="71" y="75" xlink:href="#r0"/><use x="75" y="75" xlink:href="#r0"/><use x="21" y="77" xlink:href="#r0"/><use x="23" y="77" xlink:href="#r0"/><use x="25" y="77" xlink:href="#r0"/><use x="27" y="77" xlink:href="#r0"/><use x="29" y="77" xlink:href="#r0"/><use x="31" y="77" xlink:href="#r0"/><use x="33" y="77" xlink:href="#r0"/><use x="39" y="77" xlink:href="#r0"/><use x="41" y="77" xlink:href="#r0"/><use x="43" y="77" xlink:href="#r0"/><use x="45" y="77" xlink:href="#r0"/><use x="49" y="77" xlink:href="#r0"/><use x="51" y="77" xlink:href="#r0"/><use x="55" y="77" xlink:href="#r0"/><use x="59" y="77" xlink:href="#r0"/><use x="63" y="77" xlink:href="#r0"/><use x="67" y="77" xlink:href="#r0"/><use x="69" y="77" xlink:href="#r0"/><use x="71" y="77" xlink:href="#r0"/><use x="73" y="77" xlink:href="#r0"/></svg>
